<svg width="28" height="29" viewBox="0 0 28 29" fill="none" xmlns="http://www.w3.org/2000/svg">
<path d="M20.5892 7.24189C18.2136 7.24189 16.7817 8.21468 16.0875 9.28475C16.0875 9.28475 16.2177 8.37681 16.2177 7.27432V0H11V22.7309H16.2177V21.0771C16.9011 22.1148 18.4306 23.12 20.5892 23.12C24.5269 23.12 27.6944 19.7801 27.6944 15.1647C27.6944 10.5494 24.5269 7.24189 20.5892 7.24189ZM19.1899 18.4074C17.4 18.4074 16.1309 16.9158 16.1309 15.1647C16.1309 13.3813 17.4 11.9545 19.1899 11.9545C21.0123 11.9545 22.2814 13.3813 22.2814 15.1647C22.2814 16.9158 21.0123 18.4074 19.1899 18.4074Z" fill="#FAFAFA"/>
<path d="M0.650852 12.6029H2.63595V23.7036C2.63595 24.2872 2.34307 24.5142 1.46442 24.5142H0V28.9674H2.4407C4.55596 28.9674 7.85362 28.8377 7.85362 25.1087V8.1497H0.650852V12.6029Z" fill="#FAFAFA"/>
<path d="M5.05488 0C3.29758 0 1.93079 1.39433 1.93079 3.14536C1.93079 4.89638 3.29758 6.25829 5.05488 6.25829C6.81218 6.25829 8.21151 4.89638 8.21151 3.14536C8.21151 1.39433 6.81218 0 5.05488 0Z" fill="#FAFAFA"/>
</svg>
