<svg width="18" height="24" viewBox="0 0 18 24" fill="none" xmlns="http://www.w3.org/2000/svg">
<path d="M10.3119 7.26071C7.93628 7.26071 6.50441 8.2335 5.81017 9.30357C5.81017 9.30357 5.94034 8.39564 5.94034 7.29314V0.0188217H0.722672V22.7497H5.94034V21.096C6.62373 22.1336 8.15324 23.1388 10.3119 23.1388C14.2496 23.1388 17.417 19.7989 17.417 15.1836C17.417 10.5682 14.2496 7.26071 10.3119 7.26071ZM8.91256 18.4262C7.12272 18.4262 5.85355 16.9346 5.85355 15.1836C5.85355 13.4001 7.12272 11.9733 8.91256 11.9733C10.7349 11.9733 12.0041 13.4001 12.0041 15.1836C12.0041 16.9346 10.7349 18.4262 8.91256 18.4262Z" fill="#FAFAFA"/>
</svg>
